<svg width="15" height="17" viewBox="0 0 15 17" fill="none" xmlns="http://www.w3.org/2000/svg">
<path d="M13.2482 1.42857H14.1053C14.266 1.42857 14.391 1.30357 14.391 1.14286V0.571428C14.391 0.410714 14.266 0.285713 14.1053 0.285713H0.962472C0.801758 0.285713 0.676758 0.410714 0.676758 0.571428V1.14286C0.676758 1.30357 0.801758 1.42857 0.962472 1.42857H1.81962C1.81962 4.73214 3.39997 7.125 5.14997 8.28571C3.39997 9.44643 1.81962 11.8393 1.81962 15.1429H0.962472C0.801758 15.1429 0.676758 15.2679 0.676758 15.4286V16C0.676758 16.1607 0.801758 16.2857 0.962472 16.2857H14.1053C14.266 16.2857 14.391 16.1607 14.391 16V15.4286C14.391 15.2679 14.266 15.1429 14.1053 15.1429H13.2482C13.2482 11.8393 11.6678 9.44643 9.91783 8.28571C11.6678 7.125 13.2482 4.73214 13.2482 1.42857ZM12.1053 1.42857C12.1053 2.73214 11.8107 3.88393 11.3464 4.85714H3.7214C3.25712 3.88393 2.96247 2.73214 2.96247 1.42857H12.1053ZM11.5964 12.2857H3.4714C4.13212 10.5625 5.31962 9.33929 6.50712 8.85714H8.56069C9.74819 9.33929 10.9357 10.5625 11.5964 12.2857Z" fill="white"/>
</svg>
